<svg width="131" height="49" viewBox="0 0 131 49" fill="none" xmlns="http://www.w3.org/2000/svg">
<g clip-path="url(#clip0)">
<path d="M67.6327 16.2299L73.8654 15.8242C74.0075 16.8505 74.268 17.6143 74.6945 18.1632C75.382 19.0224 76.3299 19.452 77.5856 19.452C78.51 19.452 79.2444 19.2372 79.7423 18.7837C80.2162 18.4258 80.5006 17.8529 80.5006 17.2562C80.5006 16.6834 80.2396 16.1345 79.7897 15.7764C79.3157 15.3469 78.2017 14.9172 76.4481 14.5353C73.581 13.8909 71.5191 13.0317 70.3108 11.9338C69.102 10.9075 68.415 9.40385 68.4624 7.80473C68.4624 6.7068 68.7942 5.60888 69.4103 4.70193C70.1212 3.67563 71.0925 2.86413 72.254 2.41065C73.5096 1.86169 75.2632 1.57529 77.4673 1.57529C80.1688 1.57529 82.2307 2.0765 83.6526 3.10281C85.0744 4.10524 85.9275 5.72826 86.1879 7.9479L80.0266 8.30593C79.8605 7.35123 79.5287 6.65904 78.9839 6.2056C78.4387 5.75211 77.7277 5.53732 76.8038 5.53732C76.0455 5.53732 75.4768 5.70435 75.0976 6.01467C74.7419 6.30107 74.5049 6.73066 74.5289 7.208C74.5289 7.56603 74.7185 7.9002 75.0028 8.11499C75.3106 8.4014 76.0455 8.66395 77.2064 8.9026C80.074 9.52317 82.112 10.1438 83.3682 10.7881C84.6239 11.4326 85.5244 12.2202 86.0697 13.151C86.6384 14.1058 86.9228 15.2036 86.8988 16.3254C86.8988 17.662 86.5196 18.9986 85.7613 20.1204C84.9796 21.2899 83.8895 22.1968 82.6099 22.7458C81.2589 23.3425 79.5527 23.6527 77.5147 23.6527C73.9128 23.6527 71.4243 22.9606 70.0264 21.5524C68.628 20.1442 67.7989 18.378 67.6327 16.2299ZM1.49295 23.2947V1.95716H12.4175C14.4318 1.95716 15.9958 2.12424 17.0622 2.48225C18.1049 2.8164 19.0291 3.50855 19.6453 4.43939C20.3325 5.4657 20.6642 6.65904 20.6405 7.9002C20.7116 10.0005 19.6453 12.0054 17.8205 13.0555C17.1096 13.4613 16.3276 13.7477 15.5219 13.8909C16.1143 14.058 16.7068 14.3444 17.2281 14.6786C17.631 15.0127 17.9627 15.3946 18.2708 15.8003C18.6263 16.2061 18.9343 16.6596 19.195 17.1369L22.3705 23.3186H14.9295L11.4222 16.755C10.9719 15.9197 10.5928 15.3707 10.2373 15.1082C9.76339 14.774 9.19466 14.607 8.62592 14.607H8.05714V23.2709H1.49295V23.2947ZM8.05714 10.5972H10.8298C11.4222 10.5495 11.991 10.454 12.5597 10.3108C12.9863 10.2392 13.3654 10.0005 13.6261 9.6425C14.2659 8.78327 14.1711 7.56603 13.3891 6.82613C12.9626 6.4681 12.1332 6.27717 10.9482 6.27717H8.05714V10.5972ZM0 41.5773L6.23246 41.1715C6.37464 42.1978 6.63531 42.9615 7.06186 43.5105C7.72538 44.3697 8.69702 44.8232 9.95296 44.8232C10.8772 44.8232 11.6118 44.6084 12.1095 44.1549C12.5834 43.773 12.8678 43.2241 12.8678 42.6274C12.8678 42.0546 12.6071 41.5056 12.1569 41.1476C11.6829 40.718 10.5691 40.2884 8.7918 39.9065C5.9244 39.2621 3.8627 38.4029 2.65412 37.3049C1.44555 36.2786 0.75832 34.775 0.805714 33.1759C0.805714 32.078 1.13748 30.9801 1.75362 30.0731C2.46455 29.0468 3.43615 28.2353 4.59732 27.7818C5.8533 27.2329 7.60689 26.9464 9.81078 26.9464C12.5123 26.9464 14.574 27.4477 15.9958 28.474C17.4177 29.5003 18.2471 31.0994 18.5078 33.3191L12.3464 33.6771C12.1806 32.7224 11.8488 32.0302 11.3037 31.5767C10.7824 31.1233 10.0478 30.9084 9.12356 30.9324C8.36526 30.9324 7.79647 31.0994 7.41732 31.4335C7.03816 31.72 6.82489 32.1495 6.84858 32.6269C6.84858 32.9849 7.03816 33.3191 7.32253 33.5339C7.63059 33.8203 8.36526 34.0828 9.52642 34.3215C12.3938 34.9421 14.4318 35.5626 15.6878 36.2071C16.9437 36.8514 17.8442 37.6391 18.3893 38.5699C18.958 39.5246 19.2424 40.6226 19.2424 41.7204C19.2424 43.0571 18.8396 44.3697 18.1049 45.4915C17.3229 46.661 16.2328 47.568 14.9532 48.1169C13.6024 48.7136 11.8962 49.0239 9.85818 49.0239C6.25616 49.0239 3.76791 48.3318 2.36975 46.9236C0.971599 45.4915 0.18958 43.7253 0 41.5773Z" fill="white"/>
<path d="M31.5177 39.9065L37.2525 41.6488C36.9444 43.1047 36.3046 44.4891 35.4278 45.7063C34.6221 46.7803 33.5557 47.6157 32.3471 48.1646C31.1148 48.7136 29.5508 49 27.655 49C25.3564 49 23.4606 48.6658 22.015 47.9976C20.5458 47.3293 19.2898 46.1359 18.2234 44.4413C17.157 42.7467 16.6357 40.5748 16.6357 37.9255C16.6357 34.3931 17.5599 31.6722 19.432 29.7867C21.3041 27.9012 23.9345 26.9464 27.3469 26.9464C30.0248 26.9464 32.1102 27.4954 33.6505 28.5694C35.1672 29.6673 36.3046 31.338 37.0629 33.5816L31.2807 34.8705C31.1385 34.3692 30.9253 33.868 30.6409 33.4384C30.2854 32.9372 29.8352 32.5553 29.2902 32.2689C28.7451 31.9825 28.1289 31.8632 27.5128 31.8632C26.0199 31.8632 24.8824 32.4598 24.1004 33.6771C23.5079 34.5601 23.1999 35.9683 23.1999 37.8778C23.1999 40.2406 23.5553 41.8636 24.2663 42.7467C24.9772 43.6298 25.9725 44.0594 27.2758 44.0594C28.5319 44.0594 29.4797 43.7014 30.1196 43.0093C30.7594 42.2694 31.2333 41.243 31.5177 39.9065ZM44.9069 27.3044H51.4474V34.775H58.6039V27.3044H65.1917V48.642H58.6039V40.0019H51.4474V48.642H44.9069V27.3044Z" fill="white"/>
<path d="M64.2912 37.9732C64.2912 34.4886 65.263 31.7677 67.1828 29.8344C69.102 27.9011 71.8034 26.9225 75.2398 26.9225C78.7704 26.9225 81.4724 27.8772 83.3916 29.7867C85.3114 31.6961 86.2592 34.3692 86.2592 37.8061C86.2592 40.3123 85.8327 42.341 85.003 43.9401C84.1973 45.5154 82.9416 46.8042 81.4011 47.6634C79.8131 48.5465 77.8465 49 75.5002 49C73.1071 49 71.1399 48.6181 69.5759 47.8544C67.9645 47.0429 66.6375 45.7779 65.7609 44.2265C64.7891 42.5558 64.2912 40.4793 64.2912 37.9732ZM70.8321 37.9971C70.8321 40.1452 71.2347 41.6965 72.017 42.6512C72.7987 43.5821 73.8888 44.0594 75.2632 44.0594C76.6616 44.0594 77.7517 43.606 78.5334 42.6751C79.3157 41.7443 79.6949 40.0974 79.6949 37.7107C79.6949 35.7058 79.2917 34.226 78.486 33.319C77.6803 32.3882 76.5903 31.9348 75.2158 31.9348C74.0075 31.887 72.8461 32.4121 72.0404 33.3429C71.2347 34.2737 70.8321 35.8251 70.8321 37.9971ZM92.9653 37.9732C92.9653 34.4886 93.9371 31.7677 95.8563 29.8344C97.7761 27.9011 100.478 26.9225 103.914 26.9225C107.444 26.9225 110.17 27.8772 112.066 29.7867C113.961 31.6961 114.933 34.3692 114.933 37.8061C114.933 40.3123 114.507 42.341 113.677 43.9401C112.871 45.5154 111.615 46.8042 110.075 47.6634C108.487 48.5465 106.521 49 104.174 49C101.781 49 99.814 48.6181 98.25 47.8544C96.6386 47.0429 95.3116 45.7779 94.4345 44.2265C93.4632 42.5558 92.9653 40.4793 92.9653 37.9732ZM99.5062 37.9971C99.5062 40.1452 99.9088 41.6965 100.691 42.6512C101.473 43.5821 102.563 44.0594 103.937 44.0594C105.336 44.0594 106.426 43.606 107.208 42.6751C107.99 41.7443 108.369 40.0974 108.369 37.7107C108.369 35.7058 107.966 34.226 107.16 33.319C106.354 32.3882 105.264 31.9348 103.89 31.9348C102.682 31.887 101.497 32.4121 100.715 33.3429C99.9088 34.2737 99.5062 35.8251 99.5062 37.9971Z" fill="white"/>
<path d="M114.246 27.3044H120.786V43.3911H131V48.642H114.222V27.3044H114.246Z" fill="white"/>
<path d="M107.037 26.0731C113.622 21.0752 115.652 12.603 111.572 7.1499C107.492 1.69684 98.8464 1.32779 92.2613 6.32562C85.6767 11.3235 83.6462 19.7957 87.7258 25.2488C91.806 30.7018 100.452 31.0709 107.037 26.0731Z" fill="#08162B"/>
<path d="M107.037 26.0731C113.622 21.0752 115.652 12.603 111.572 7.1499C107.492 1.69684 98.8464 1.32779 92.2613 6.32562C85.6767 11.3235 83.6462 19.7957 87.7263 25.2488C91.806 30.7018 100.452 31.0709 107.037 26.0731Z" stroke="white" stroke-width="4" stroke-miterlimit="10"/>
<path d="M92.9892 14.6308L95.359 12.9601L98.274 17.1369C98.7713 17.8052 99.1505 18.5213 99.4349 19.3089C99.601 19.9056 99.5536 20.55 99.3166 21.1228C99.0083 21.8388 98.5109 22.4355 97.8474 22.8651C97.0651 23.4141 96.4016 23.7244 95.8329 23.8198C95.2876 23.9153 94.7189 23.8198 94.1975 23.5812C93.6288 23.2948 93.1314 22.889 92.7523 22.3639L94.7902 20.4545C94.9558 20.717 95.1694 20.9557 95.4063 21.1467C95.572 21.266 95.7615 21.3376 95.9751 21.3376C96.1407 21.3376 96.3068 21.266 96.4251 21.1705C96.662 21.0273 96.8282 20.7409 96.8042 20.4545C96.7334 20.0488 96.5672 19.643 96.3068 19.3327L92.9892 14.6308ZM100.098 17.2802L102.255 15.5617C102.492 15.8481 102.8 16.0629 103.132 16.1822C103.606 16.3254 104.103 16.2299 104.506 15.9197C104.79 15.7287 105.027 15.4662 105.122 15.1321C105.264 14.7024 105.027 14.2251 104.601 14.0819C104.53 14.058 104.459 14.0341 104.388 14.0341C104.103 14.0103 103.606 14.1296 102.871 14.4399C101.662 14.9411 100.715 15.1321 100.004 15.0605C99.3166 14.9888 98.6766 14.6308 98.2974 14.0341C98.013 13.6284 97.8709 13.1511 97.8474 12.6737C97.8474 12.1248 97.9896 11.5758 98.2974 11.1223C98.7479 10.4779 99.2927 9.92891 99.9562 9.49933C100.951 8.80719 101.829 8.47302 102.587 8.47302C103.345 8.47302 104.056 8.83104 104.72 9.57094L102.587 11.2655C102.16 10.7166 101.355 10.5973 100.809 11.0268L100.738 11.0985C100.502 11.2416 100.335 11.4565 100.241 11.719C100.17 11.9099 100.217 12.1248 100.335 12.2918C100.43 12.4112 100.572 12.5066 100.738 12.5066C100.928 12.5305 101.26 12.435 101.734 12.2202C102.919 11.719 103.819 11.4326 104.435 11.3371C104.957 11.2416 105.501 11.2894 105.999 11.5042C106.449 11.6951 106.828 12.0293 107.089 12.435C107.421 12.9124 107.611 13.4852 107.634 14.0819C107.658 14.7024 107.492 15.2992 107.16 15.8242C106.734 16.4686 106.189 17.0176 105.549 17.4472C104.246 18.3542 103.179 18.736 102.326 18.5929C101.402 18.4496 100.644 17.9723 100.098 17.2802Z" fill="white"/>
</g>
<defs>
<clipPath id="clip0">
<rect width="131" height="49" fill="white"/>
</clipPath>
</defs>
</svg>
