<svg width="56" height="65" viewBox="0 0 56 65" fill="none" xmlns="http://www.w3.org/2000/svg">
<path d="M25.6989 0.967552C24.8071 1.51032 23.8214 2.1003 23.5163 2.28909L23 2.61947L24.8071 5.30973C25.8162 6.79646 26.6845 8 26.7549 8C26.8488 8 29.6416 2.12389 29.9936 1.15634C30.1109 0.849557 28.5855 0 27.9284 0C27.5998 0 26.6141 0.448378 25.6989 0.967552Z" fill="white"/>
<path d="M30.2156 3.28649C27.9038 8.34219 27.4876 9.04186 27.1409 8.74845C26.8403 8.52275 26.7479 8.52275 26.586 8.79359C26.3317 9.15471 26.4242 9.26756 23.9968 5.79177C23.072 4.48271 22.2629 3.42192 22.1935 3.44448C22.1242 3.48962 17.1075 6.33345 11.0505 9.78667L0 16.0386V17.4379V18.8147L6.86613 26.9851C10.6344 31.4991 13.8016 35.1103 13.8941 34.9974C13.9866 34.9071 16.7839 29.1518 20.1129 22.2002C23.4419 15.2486 26.2624 9.47069 26.3548 9.35784C26.4935 9.22242 26.6323 9.29013 26.7247 9.5384C26.8634 9.87695 26.8866 9.87695 27.164 9.5384C27.5108 9.06443 27.3027 8.81616 32.2269 15.8806C34.2151 18.7244 35.9489 21.0943 36.0414 21.1394C36.2263 21.2071 43 9.24499 43 8.8613C43 8.6356 31.4177 2 31.0478 2C30.9091 2 30.5392 2.58682 30.2156 3.28649Z" fill="white"/>
<path d="M40.6367 15.1562C38.7682 18.6719 37.1303 21.7187 37.015 21.9297C36.8305 22.2109 38.3068 24.5547 43.7739 32.6406C47.6263 38.3359 50.8328 43 50.902 43C50.9712 43 52.1476 40.8906 53.5317 38.3359L56 33.6953V24.789V15.8594L50.5329 12.6484C47.511 10.8672 44.812 9.27341 44.5583 9.08591C44.0738 8.78122 43.9585 8.96872 40.6367 15.1562Z" fill="white"/>
<path d="M21.1873 23.2416L15 36.4833L15.92 37.5886C16.4031 38.1874 18.1972 40.3521 19.8762 42.4247C21.5783 44.4973 23.0274 46.1093 23.1194 45.9942C23.2344 45.9021 26.1555 40.5594 29.6517 34.1113L36 22.4356L31.7218 16.2178C29.3757 12.7865 27.4436 10 27.4206 10C27.3976 10 24.5915 15.9645 21.1873 23.2416Z" fill="white"/>
<path d="M0 34.8226V48.6453L2.9901 50.3874C4.64372 51.3731 6.07081 52.0837 6.13877 51.992C6.20673 51.9003 7.76973 48.5307 9.62722 44.4962C11.4847 40.4617 13.0251 37.1149 13.0704 37.0691C13.093 37.0233 13.2742 37.1149 13.4781 37.2754C13.7499 37.5046 13.8405 37.4817 13.9538 37.1608C14.1577 36.6336 13.6367 36.1292 13.3648 36.5877C13.093 37.0233 13.7499 37.7568 6.36529 28.6105C2.96745 24.4385 0.158566 21 0.0906091 21C0.0453046 21 0 27.2122 0 34.8226Z" fill="white"/>
<path d="M30.0496 35.4651C24.1819 46.4447 23.7756 47.2982 24.069 47.7826C24.6784 48.7514 34.5407 60.9997 34.7438 60.9997C34.8567 61.0227 37.0007 59.8002 39.5057 58.324L44.042 55.6252L47.021 50.0431C48.6685 46.9753 50 44.3226 50 44.1842C50 43.9766 38.1065 26.077 36.6396 24.0472C36.3913 23.7012 35.6014 25.0391 30.0496 35.4651Z" fill="white"/>
<path d="M53.9182 39.924C52.7995 42.104 51.9389 43.9857 52.0034 44.1463C52.154 44.5364 54.9295 48.8505 55.1231 48.9882C55.2092 49.0341 55.4458 48.9423 55.661 48.7817C56.0052 48.5292 56.0267 47.9785 55.9837 42.2417L55.9191 36L53.9182 39.924Z" fill="white"/>
<path d="M10.4453 45.235C8.54688 49.2211 7 52.5621 7 52.6773C7 52.8616 15.4609 57.8386 16.0234 57.9998C16.2578 58.0459 22 48.023 22 47.5852C22 47.3548 14.2188 38 14.0312 38C13.9375 38 12.3438 41.2488 10.4453 45.235Z" fill="white"/>
<path d="M48.6041 49.2899C47.2481 51.7483 46.076 53.8459 46.007 53.9361C45.961 54.0489 46.1449 54.0037 46.4437 53.8684C47.4779 53.3271 53.6604 49.7636 53.9362 49.538C54.143 49.3802 53.8672 48.7938 52.81 47.2601C52.0516 46.1098 51.3391 45.0949 51.2472 45.0047C51.1552 44.8919 49.9601 46.8316 48.6041 49.2899Z" fill="white"/>
<path d="M19.9651 52.6591C18.5041 55.3556 17.2108 57.8335 17.0671 58.1007C16.8036 58.6109 17.091 58.8052 22.1685 61.8176C25.1384 63.5667 27.7729 65 28.0364 65C28.3238 65 29.7608 64.2712 31.2697 63.3724L34 61.7447L32.9701 60.5301C32.4193 59.8499 29.9763 56.8375 27.5573 53.8252C25.1384 50.8128 23.0307 48.2134 22.887 48.0434C22.6475 47.7762 22.0727 48.675 19.9651 52.6591Z" fill="white"/>
</svg>
